# xmcd CD database file
#
# Track frame offsets:
#	150
#	14584
#	30289
#	46026
#	63166
#	78115
#	96787
#	110975
#	124168
#	143179
#	168374
#	178512
#	193018
#	202096
#
# Disc length: 2949 seconds
#
# Revision: 0
# Processed by: cddbd v1.5.1PL0 Copyright (c) Steve Scherf et al.
# Submitted via: CDex 1.51
#
DISCID=b90b830e
DTITLE=Uncle Bob's Jug Band - Uncle Bob's Jug Band
DYEAR=1900
DGENRE=Blues
TTITLE0=Jug Band Music
TTITLE1=Rolling in my Sweet Baby's Arms
TTITLE2=Rag Momma
TTITLE3=Kansas City Blues
TTITLE4=Mobile Line
TTITLE5=Waltzing Matilda
TTITLE6=Rambling Rose
TTITLE7=Rock Island Line
TTITLE8=Ghost Riders in the Sky
TTITLE9=Blues in the Bottle
TTITLE10=If I live
TTITLE11=Folsom Prison Blues
TTITLE12=That Cat is High
TTITLE13=Carry On
EXTD=
EXTT0=
EXTT1=
EXTT2=
EXTT3=
EXTT4=
EXTT5=
EXTT6=
EXTT7=
EXTT8=
EXTT9=
EXTT10=
EXTT11=
EXTT12=
EXTT13=
PLAYORDER=
